<?xml version="1.0" encoding="utf-8"?>
<!-- Generator: Adobe Illustrator 25.2.3, SVG Export Plug-In . SVG Version: 6.00 Build 0)  -->
<svg version="1.1" id="Layer_1" xmlns="http://www.w3.org/2000/svg" xmlns:xlink="http://www.w3.org/1999/xlink" x="0px" y="0px"
	 viewBox="0 0 203.75 208.77" style="enable-background:new 0 0 203.75 208.77;" xml:space="preserve">
<style type="text/css">
	.st0{fill:#434342;}
</style>
<path class="st0" d="M187.4,208.78V13.23h-29.35v195.55H141.7V94.28c-7.38,0-14.15-1.16-20.33-3.49c-6.18-2.32-11.47-5.49-15.87-9.5
	c-4.41-4.01-7.86-8.74-10.34-14.19c-2.49-5.45-3.73-11.3-3.73-17.56c0-15.87,4.89-28.1,14.67-36.68C115.88,4.29,129.27,0,146.27,0
	h57.49v208.78H187.4z"/>
<path class="st0" d="M16.35,0v195.55H45.7V0h16.35v114.49c7.38,0,14.15,1.16,20.33,3.49c6.18,2.32,11.47,5.49,15.87,9.5
	c4.41,4.01,7.86,8.74,10.34,14.19c2.49,5.45,3.73,11.3,3.73,17.56c0,15.87-4.89,28.1-14.67,36.68
	c-9.78,8.58-23.17,12.87-40.17,12.87H0V0H16.35z"/>
</svg>
